<?xml version="1.0" encoding="UTF-8"?>
<svg xmlns="http://www.w3.org/2000/svg" xmlns:xlink="http://www.w3.org/1999/xlink" width="240px" height="240px" viewBox="0 0 240 240" version="1.1">
<g id="surface428490">
<path style=" stroke:none;fill-rule:nonzero;fill:gray;fill-opacity:1;" d="M 120 210 C 172.5 210 215 167.5 215 115 L 25 115 C 25 167.5 67.5 210 120 210 Z M 120 210 "/>
<path style=" stroke:none;fill-rule:nonzero;fill:rgb(47.058824%,56.470588%,61.176471%);fill-opacity:1;" d="M 53 182.5 C 58.5 188 65 193 71.5 196.5 L 115 123.5 C 114.5 123 113.5 122.5 113 122 C 112.5 121.5 112 120.5 111.5 120 L 38.5 164 C 42.5 170.5 47 176.5 53 182.5 Z M 53 182.5 "/>
<path style=" stroke:none;fill-rule:nonzero;fill:blacks;fill-opacity:1;" d="M 75 115 C 75 126.5 79.5 138 88 147 C 105.5 164.5 134 164.5 151.5 147 C 160.5 138 164.5 126.5 164.5 115 Z M 75 115 "/>
<path style=" stroke:none;fill-rule:nonzero;fill:gray;fill-opacity:1;" d="M 201.5 82.5 C 201.5 81.5 201 80.5 199.5 79.5 C 198 79 196 78 192.5 77.5 C 189 76.5 186 76 184 74.5 C 181.5 73.5 180 72 179 70 C 178 68 177 66 177 64 C 177 60 178.5 56.5 182 54 C 185.5 51.5 189.5 50 195 50 C 201 50 206 51.5 209.5 54 C 213 56.5 215 60 215 64.5 L 201 64.5 C 201 61 199 59 195.5 59 C 194 59 193 59.5 192 60 C 191 60.5 190 62 190 63 C 190 64 190.5 65 192 66 C 193.5 67 195 67.5 198 68 C 200.5 68.5 203 69 205 69.5 C 212 72 215 76 215 81.5 C 215 85.5 213 88.5 209.5 91.5 C 206 94 201 95.5 195 95.5 C 191 95.5 187.5 95 184.5 93.5 C 181.5 92 179 90.5 177.5 88 C 176 85.5 175 83 175 80.5 L 188 80.5 C 188 82.5 189 84 190 85 C 191.5 86 193 86.5 195 86.5 C 197 86.5 198.5 86 199.5 85.5 C 201 84.5 201.5 83.5 201.5 82.5 Z M 170 68.5 C 170 77 168 83.5 164 88.5 C 160 93 154.5 95 147.5 95 C 140.5 95 135 92.5 131 88 C 127 83.5 125 77 125 68.5 L 125 57 C 125 48.5 127 42 131 37 C 135 32.5 140.5 30 147.5 30 C 154.5 30 160 32.5 164 37 C 168 41.5 170 48.5 170 57 Z M 155 55 C 155 50.5 154.5 47 153 45 C 152 43 150 41.5 147 41.5 C 144.5 41.5 142.5 42.5 141.5 44.5 C 140.5 46.5 139.5 49.5 139.5 54 L 139.5 70 C 139.5 74.5 140 78 141.5 80.5 C 142.5 82.5 144.5 84 147.5 84 C 150 84 152 83 153 81 C 154 79 155 75.5 155 71 Z M 118.5 48 C 118.5 51 117.5 54 116 56 C 115 58.5 112.5 60 110 61.5 C 113 63 115.5 65 117.5 67.5 C 119.5 70 120 73 120 76.5 C 120 82 118 86.5 114 90 C 110 93.5 104.5 95 97.5 95 C 90.5 95 85 93.5 81 90 C 77 86.5 75 82.5 75 77 C 75 73.5 76 70.5 77.5 68 C 79.5 65.5 82 63.5 85 62 C 82.5 60.5 80 58.5 78.5 56.5 C 77 54.5 76 51.5 76 48.5 C 76 43 78 38.5 81.5 35.5 C 85.5 32.5 90.5 30.5 97 30.5 C 103.5 30.5 108.5 32 112.5 35.5 C 117 38 118.5 42.5 118.5 48 Z M 105 75.5 C 105 73 104.5 71 103 69.5 C 101.5 68 100 67.5 97.5 67.5 C 95.5 67.5 93.5 68 92 69.5 C 90.5 71 90 73 90 75.5 C 90 78 90.5 80 92 81.5 C 93.5 83 95 83.5 97.5 83.5 C 99.5 83.5 101.5 83 103 81.5 C 104.5 80 105 78 105 75.5 Z M 97.5 41.5 C 95.5 41.5 94 42 93 43.5 C 92 45 91.5 46.5 91.5 49 C 91.5 51.5 92 53 93 54.5 C 94 56 95.5 56.5 97.5 56.5 C 99.5 56.5 101 56 102 54.5 C 103 53 103.5 51.5 103.5 49 C 103.5 46.5 103 45 102 43.5 C 101 42 99.5 41.5 97.5 41.5 Z M 130 115 C 130 117.5 129 120 127 122 C 123 126 117 126 113 122 C 111 120 110 117.5 110 115 L 85 115 C 85 124 88.5 133 95.5 139.5 C 109 153 131.5 153 145 139.5 C 152 132.5 155 123.5 155.5 115 Z M 130 115 "/>
</g>
</svg>
